<svg width="80" height="80" viewBox="0 0 80 80" fill="none" xmlns="http://www.w3.org/2000/svg">
<circle cx="14.6067" cy="36.7712" r="6.19946" fill="url(#paint0_linear_1138_1017)"/>
<rect x="28.0659" y="24.5728" width="42.9941" height="34.4448" rx="3.25283" transform="rotate(0.42809 28.0659 24.5728)" fill="url(#paint1_linear_1138_1017)"/>
<g filter="url(#filter0_bi_1138_1017)">
<rect x="66.0264" y="20" width="34.2794" height="51.7838" rx="4.06604" transform="rotate(90 66.0264 20)" fill="#B2E7FE" fill-opacity="0.23"/>
<rect x="65.8231" y="20.2033" width="33.8728" height="51.3772" rx="3.86273" transform="rotate(90 65.8231 20.2033)" stroke="url(#paint2_linear_1138_1017)" stroke-width="0.406604"/>
<rect x="65.8231" y="20.2033" width="33.8728" height="51.3772" rx="3.86273" transform="rotate(90 65.8231 20.2033)" stroke="url(#paint3_linear_1138_1017)" stroke-width="0.406604"/>
</g>
<path d="M52.3532 31.9813C49.5876 31.9813 46.7473 31.9813 43.9817 31.9813C43.8322 31.9813 43.6079 31.9813 43.4584 31.9813C42.9352 31.9069 42.6362 31.5346 42.6362 31.0134C42.6362 30.4922 42.9352 30.1199 43.4584 30.0454C43.6827 30.0454 43.8322 30.0454 44.0564 30.0454C49.6624 30.0454 55.1936 30.0454 60.7995 30.0454C61.0238 30.0454 61.248 30.0454 61.3975 30.0454C61.9207 30.1199 62.2197 30.4922 62.2197 31.0134C62.2197 31.5346 61.9207 31.9069 61.3975 31.9813C61.248 31.9813 61.0238 31.9813 60.8743 31.9813C58.0339 31.9813 55.1936 31.9813 52.3532 31.9813Z" fill="white"/>
<path d="M55.4189 26.8148C53.4755 26.8148 51.5321 26.8148 49.6635 26.8148C48.916 26.8148 48.4675 26.3681 48.5423 25.7724C48.617 25.1767 48.9907 24.8789 49.7382 24.8789C52.2048 24.8789 54.6714 24.8789 57.1381 24.8789C58.4835 24.8789 59.8289 24.8789 61.1744 24.8789C61.9218 24.8789 62.3703 25.2512 62.3703 25.8469C62.3703 26.4425 61.9218 26.8148 61.0996 26.8148C59.1562 26.8148 57.2876 26.8148 55.4189 26.8148Z" fill="white"/>
<path d="M49.5144 34.7764C51.383 34.7764 53.2517 34.7764 55.1203 34.7764C55.8678 34.7764 56.3163 35.1487 56.3163 35.7443C56.3163 36.34 55.8678 36.7123 55.1203 36.7123C51.3083 36.7123 47.571 36.7123 43.7589 36.7123C43.0115 36.7123 42.563 36.34 42.563 35.7443C42.563 35.1487 43.0115 34.7764 43.7589 34.7764C45.7023 34.7764 47.6457 34.7764 49.5144 34.7764Z" fill="white"/>
<path d="M44.5811 24.8789C44.8801 24.8789 45.2538 24.8789 45.5528 24.8789C46.0761 24.9534 46.4498 25.3257 46.5245 25.8469C46.5245 26.3681 46.1508 26.8148 45.5528 26.8148C44.8801 26.8148 44.2074 26.8148 43.5347 26.8148C43.0115 26.8148 42.6377 26.3681 42.563 25.8469C42.563 25.3257 42.9367 24.8789 43.5347 24.8789C43.9084 24.8789 44.2074 24.8789 44.5811 24.8789Z" fill="white"/>
<rect x="18.979" y="48.8389" width="26.662" height="1.60201" rx="0.801005" fill="white"/>
<rect x="21.0396" y="42.6597" width="3.77617" height="6.98019" rx="0.686576" fill="white"/>
<rect x="27.2192" y="38.8833" width="3.77617" height="10.7564" rx="0.686576" fill="white"/>
<rect x="33.6255" y="35.4507" width="3.77617" height="14.1892" rx="0.686576" fill="white"/>
<rect x="40.0347" y="41.4004" width="3.77617" height="8.23891" rx="0.686576" fill="white"/>
<defs>
<filter id="filter0_bi_1138_1017" x="6.1106" y="11.8679" width="68.0478" height="50.5434" filterUnits="userSpaceOnUse" color-interpolation-filters="sRGB">
<feFlood flood-opacity="0" result="BackgroundImageFix"/>
<feGaussianBlur in="BackgroundImageFix" stdDeviation="4.06604"/>
<feComposite in2="SourceAlpha" operator="in" result="effect1_backgroundBlur_1138_1017"/>
<feBlend mode="normal" in="SourceGraphic" in2="effect1_backgroundBlur_1138_1017" result="shape"/>
<feColorMatrix in="SourceAlpha" type="matrix" values="0 0 0 0 0 0 0 0 0 0 0 0 0 0 0 0 0 0 127 0" result="hardAlpha"/>
<feOffset dx="-0.315542" dy="-0.315542"/>
<feComposite in2="hardAlpha" operator="arithmetic" k2="-1" k3="1"/>
<feColorMatrix type="matrix" values="0 0 0 0 1 0 0 0 0 1 0 0 0 0 1 0 0 0 0.08 0"/>
<feBlend mode="normal" in2="shape" result="effect2_innerShadow_1138_1017"/>
</filter>
<linearGradient id="paint0_linear_1138_1017" x1="15.0648" y1="30.0563" x2="21.3688" y2="39.2172" gradientUnits="userSpaceOnUse">
<stop stop-color="#1CEEA1"/>
<stop offset="1" stop-color="#00C17A"/>
</linearGradient>
<linearGradient id="paint1_linear_1138_1017" x1="51.1516" y1="23.1406" x2="67.007" y2="51.9003" gradientUnits="userSpaceOnUse">
<stop stop-color="#1CEEA1"/>
<stop offset="1" stop-color="#00C17A"/>
</linearGradient>
<linearGradient id="paint2_linear_1138_1017" x1="66.0264" y1="20" x2="82.5057" y2="30.8769" gradientUnits="userSpaceOnUse">
<stop stop-color="#82DD68" stop-opacity="0.1"/>
<stop offset="1" stop-color="white" stop-opacity="0"/>
</linearGradient>
<linearGradient id="paint3_linear_1138_1017" x1="70.545" y1="76.3315" x2="97.3027" y2="24.7446" gradientUnits="userSpaceOnUse">
<stop stop-color="white" stop-opacity="0"/>
<stop offset="1" stop-color="white" stop-opacity="0.62"/>
</linearGradient>
</defs>
</svg>
