<svg width="80" height="80" viewBox="0 0 80 80" fill="none" xmlns="http://www.w3.org/2000/svg">
<path d="M45.4661 15.1819C45.4661 11.5619 42.1416 8.60671 38.3738 9.3455C36.0097 9.86265 34.1627 11.7096 33.7194 14.0737C33.1284 17.2505 35.0492 20.0579 37.8566 20.8706V25.6727H41.1812V20.8706C43.6931 20.1318 45.4661 17.9154 45.4661 15.1819ZM39.5558 17.6938C38.226 17.6938 37.1178 16.5856 37.1178 15.2558C37.1178 13.926 38.226 12.8178 39.5558 12.8178C40.8857 12.8178 41.9938 13.926 41.9938 15.2558C41.9938 16.5856 40.8857 17.6938 39.5558 17.6938Z" fill="url(#paint0_linear_1138_949)"/>
<g filter="url(#filter0_bi_1138_949)">
<path d="M26.9924 17.1328C24.4326 14.573 19.9922 14.8343 17.8503 18.0209C16.5443 20.0583 16.5443 22.6703 17.9026 24.6554C19.2936 26.6823 21.5613 27.53 23.6938 27.1986C24.8999 27.0111 26.2281 27.13 27.0912 27.9931L27.8543 28.7563C28.5035 29.4054 29.556 29.4054 30.2052 28.7563V28.7563C30.8543 28.1071 30.8543 27.0546 30.2052 26.4055L29.4383 25.6386C28.5766 24.7769 28.4553 23.4541 28.6543 22.2519C28.9544 20.4385 28.4073 18.5477 26.9924 17.1328ZM24.5893 23.0882C23.649 24.0285 22.0818 24.0285 21.1415 23.0882C20.2012 22.1479 20.2012 20.5807 21.1415 19.6404C22.0818 18.7 23.649 18.7 24.5893 19.6403C25.5297 20.5807 25.5297 22.1479 24.5893 23.0882Z" fill="#B2E7FE" fill-opacity="0.25"/>
<path d="M19.1214 23.8201C18.1142 22.3472 18.0968 20.386 19.0856 18.8319C20.6908 16.4614 24.0218 16.2518 25.9476 18.1776C27.0171 19.2471 27.4208 20.6556 27.1965 22.0106C26.9684 23.3888 27.0283 25.3182 28.3935 26.6834L29.1604 27.4503C29.2325 27.5224 29.2325 27.6393 29.1604 27.7115C29.0882 27.7836 28.9713 27.7836 28.8992 27.7115L28.136 26.9483C26.7691 25.5814 24.834 25.5261 23.4669 25.7385C21.8748 25.986 20.1786 25.36 19.1214 23.8201ZM20.0967 24.133C21.614 25.6504 24.1168 25.6504 25.6341 24.133C27.1515 22.6157 27.1515 20.1129 25.6341 18.5955C24.1168 17.0782 21.614 17.0782 20.0967 18.5955C18.5793 20.1129 18.5793 22.6157 20.0967 24.133Z" stroke="url(#paint1_linear_1138_949)" stroke-width="2.95515"/>
<path d="M19.1214 23.8201C18.1142 22.3472 18.0968 20.386 19.0856 18.8319C20.6908 16.4614 24.0218 16.2518 25.9476 18.1776C27.0171 19.2471 27.4208 20.6556 27.1965 22.0106C26.9684 23.3888 27.0283 25.3182 28.3935 26.6834L29.1604 27.4503C29.2325 27.5224 29.2325 27.6393 29.1604 27.7115C29.0882 27.7836 28.9713 27.7836 28.8992 27.7115L28.136 26.9483C26.7691 25.5814 24.834 25.5261 23.4669 25.7385C21.8748 25.986 20.1786 25.36 19.1214 23.8201ZM20.0967 24.133C21.614 25.6504 24.1168 25.6504 25.6341 24.133C27.1515 22.6157 27.1515 20.1129 25.6341 18.5955C24.1168 17.0782 21.614 17.0782 20.0967 18.5955C18.5793 20.1129 18.5793 22.6157 20.0967 24.133Z" stroke="url(#paint2_linear_1138_949)" stroke-width="2.95515"/>
</g>
<g filter="url(#filter1_bi_1138_949)">
<path d="M26.9924 61.9707C24.4326 64.5305 19.9922 64.2693 17.8503 61.0826C16.5443 59.0452 16.5443 56.4332 17.9026 54.4481C19.2936 52.4213 21.5613 51.5735 23.6938 51.905C24.8999 52.0924 26.2281 51.9735 27.0912 51.1104L27.8543 50.3473C28.5035 49.6981 29.556 49.6981 30.2052 50.3473V50.3473C30.8543 50.9964 30.8543 52.0489 30.2052 52.6981L29.4383 53.465C28.5766 54.3266 28.4553 55.6494 28.6543 56.8516C28.9544 58.665 28.4073 60.5558 26.9924 61.9707ZM24.5893 56.0153C23.649 55.075 22.0818 55.075 21.1415 56.0153C20.2012 56.9556 20.2012 58.5228 21.1415 59.4632C22.0818 60.4035 23.649 60.4035 24.5893 59.4632C25.5297 58.5228 25.5297 56.9556 24.5893 56.0153Z" fill="#B2E7FE" fill-opacity="0.25"/>
<path d="M19.1214 55.2834C18.1142 56.7563 18.0968 58.7175 19.0856 60.2717C20.6908 62.6421 24.0218 62.8517 25.9476 60.9259C27.0171 59.8564 27.4208 58.4479 27.1965 57.0929C26.9684 55.7147 27.0283 53.7853 28.3935 52.4202L29.1604 51.6533C29.2325 51.5811 29.2325 51.4642 29.1604 51.3921C29.0882 51.3199 28.9713 51.3199 28.8992 51.3921L28.136 52.1552C26.7691 53.5221 24.834 53.5775 23.4669 53.365C21.8748 53.1176 20.1786 53.7435 19.1214 55.2834ZM20.0967 54.9705C21.614 53.4532 24.1168 53.4532 25.6341 54.9705C27.1515 56.4879 27.1515 58.9906 25.6341 60.508C24.1168 62.0253 21.614 62.0253 20.0967 60.508C18.5793 58.9906 18.5793 56.4879 20.0967 54.9705Z" stroke="url(#paint3_linear_1138_949)" stroke-width="2.95515"/>
<path d="M19.1214 55.2834C18.1142 56.7563 18.0968 58.7175 19.0856 60.2717C20.6908 62.6421 24.0218 62.8517 25.9476 60.9259C27.0171 59.8564 27.4208 58.4479 27.1965 57.0929C26.9684 55.7147 27.0283 53.7853 28.3935 52.4202L29.1604 51.6533C29.2325 51.5811 29.2325 51.4642 29.1604 51.3921C29.0882 51.3199 28.9713 51.3199 28.8992 51.3921L28.136 52.1552C26.7691 53.5221 24.834 53.5775 23.4669 53.365C21.8748 53.1176 20.1786 53.7435 19.1214 55.2834ZM20.0967 54.9705C21.614 53.4532 24.1168 53.4532 25.6341 54.9705C27.1515 56.4879 27.1515 58.9906 25.6341 60.508C24.1168 62.0253 21.614 62.0253 20.0967 60.508C18.5793 58.9906 18.5793 56.4879 20.0967 54.9705Z" stroke="url(#paint4_linear_1138_949)" stroke-width="2.95515"/>
</g>
<g filter="url(#filter2_bi_1138_949)">
<path d="M52.8509 17.1328C55.4106 14.573 59.8511 14.8343 61.9929 18.0209C63.2989 20.0583 63.2989 22.6703 61.9407 24.6554C60.5497 26.6823 58.2819 27.53 56.1494 27.1986C54.9434 27.0111 53.6152 27.13 52.7521 27.9931L51.9889 28.7563C51.3398 29.4054 50.2873 29.4054 49.6381 28.7563V28.7563C48.9889 28.1071 48.9889 27.0546 49.6381 26.4055L50.405 25.6386C51.2666 24.7769 51.388 23.4541 51.189 22.2519C50.8888 20.4385 51.436 18.5477 52.8509 17.1328ZM55.2539 23.0882C56.1943 24.0285 57.7615 24.0285 58.7018 23.0882C59.6421 22.1479 59.6421 20.5807 58.7018 19.6404C57.7615 18.7 56.1943 18.7 55.2539 19.6403C54.3136 20.5807 54.3136 22.1479 55.2539 23.0882Z" fill="#B2E7FE" fill-opacity="0.25"/>
<path d="M60.7218 23.8201C61.7291 22.3472 61.7465 20.386 60.7576 18.8319C59.1525 16.4614 55.8215 16.2518 53.8957 18.1776C52.8262 19.2471 52.4224 20.6556 52.6467 22.0106C52.8749 23.3888 52.8149 25.3182 51.4498 26.6834L50.6829 27.4503C50.6108 27.5224 50.6108 27.6393 50.6829 27.7115C50.755 27.7836 50.872 27.7836 50.9441 27.7115L51.7073 26.9483C53.0741 25.5814 55.0093 25.5261 56.3763 25.7385C57.9685 25.986 59.6646 25.36 60.7218 23.8201ZM59.7466 24.133C58.2292 25.6504 55.7265 25.6504 54.2091 24.133C52.6918 22.6157 52.6918 20.1129 54.2091 18.5955C55.7265 17.0782 58.2292 17.0782 59.7466 18.5955C61.2639 20.1129 61.2639 22.6157 59.7466 24.133Z" stroke="url(#paint5_linear_1138_949)" stroke-width="2.95515"/>
<path d="M60.7218 23.8201C61.7291 22.3472 61.7465 20.386 60.7576 18.8319C59.1525 16.4614 55.8215 16.2518 53.8957 18.1776C52.8262 19.2471 52.4224 20.6556 52.6467 22.0106C52.8749 23.3888 52.8149 25.3182 51.4498 26.6834L50.6829 27.4503C50.6108 27.5224 50.6108 27.6393 50.6829 27.7115C50.755 27.7836 50.872 27.7836 50.9441 27.7115L51.7073 26.9483C53.0741 25.5814 55.0093 25.5261 56.3763 25.7385C57.9685 25.986 59.6646 25.36 60.7218 23.8201ZM59.7466 24.133C58.2292 25.6504 55.7265 25.6504 54.2091 24.133C52.6918 22.6157 52.6918 20.1129 54.2091 18.5955C55.7265 17.0782 58.2292 17.0782 59.7466 18.5955C61.2639 20.1129 61.2639 22.6157 59.7466 24.133Z" stroke="url(#paint6_linear_1138_949)" stroke-width="2.95515"/>
</g>
<g filter="url(#filter3_bi_1138_949)">
<path d="M52.8509 61.9707C55.4106 64.5305 59.8511 64.2693 61.9929 61.0826C63.2989 59.0452 63.2989 56.4332 61.9407 54.4481C60.5497 52.4213 58.2819 51.5735 56.1494 51.905C54.9434 52.0924 53.6152 51.9735 52.7521 51.1104L51.9889 50.3473C51.3398 49.6981 50.2873 49.6981 49.6381 50.3473V50.3473C48.9889 50.9964 48.9889 52.0489 49.6381 52.6981L50.405 53.465C51.2666 54.3266 51.388 55.6494 51.189 56.8516C50.8888 58.665 51.436 60.5558 52.8509 61.9707ZM55.2539 56.0153C56.1943 55.075 57.7615 55.075 58.7018 56.0153C59.6421 56.9556 59.6421 58.5228 58.7018 59.4632C57.7615 60.4035 56.1943 60.4035 55.2539 59.4632C54.3136 58.5228 54.3136 56.9556 55.2539 56.0153Z" fill="#B2E7FE" fill-opacity="0.25"/>
<path d="M60.7218 55.2834C61.7291 56.7563 61.7465 58.7175 60.7576 60.2717C59.1525 62.6421 55.8215 62.8517 53.8957 60.9259C52.8262 59.8564 52.4224 58.4479 52.6467 57.0929C52.8749 55.7147 52.8149 53.7853 51.4498 52.4202L50.6829 51.6533C50.6108 51.5811 50.6108 51.4642 50.6829 51.3921C50.755 51.3199 50.872 51.3199 50.9441 51.3921L51.7073 52.1552C53.0741 53.5221 55.0093 53.5775 56.3763 53.365C57.9685 53.1176 59.6646 53.7435 60.7218 55.2834ZM59.7466 54.9705C58.2292 53.4532 55.7265 53.4532 54.2091 54.9705C52.6918 56.4879 52.6918 58.9906 54.2091 60.508C55.7265 62.0253 58.2292 62.0253 59.7466 60.508C61.2639 58.9906 61.2639 56.4879 59.7466 54.9705Z" stroke="url(#paint7_linear_1138_949)" stroke-width="2.95515"/>
<path d="M60.7218 55.2834C61.7291 56.7563 61.7465 58.7175 60.7576 60.2717C59.1525 62.6421 55.8215 62.8517 53.8957 60.9259C52.8262 59.8564 52.4224 58.4479 52.6467 57.0929C52.8749 55.7147 52.8149 53.7853 51.4498 52.4202L50.6829 51.6533C50.6108 51.5811 50.6108 51.4642 50.6829 51.3921C50.755 51.3199 50.872 51.3199 50.9441 51.3921L51.7073 52.1552C53.0741 53.5221 55.0093 53.5775 56.3763 53.365C57.9685 53.1176 59.6646 53.7435 60.7218 55.2834ZM59.7466 54.9705C58.2292 53.4532 55.7265 53.4532 54.2091 54.9705C52.6918 56.4879 52.6918 58.9906 54.2091 60.508C55.7265 62.0253 58.2292 62.0253 59.7466 60.508C61.2639 58.9906 61.2639 56.4879 59.7466 54.9705Z" stroke="url(#paint8_linear_1138_949)" stroke-width="2.95515"/>
</g>
<path d="M45.4661 64.0495C45.4661 67.6696 42.1416 70.6247 38.3738 69.8859C36.0097 69.3688 34.1627 67.5218 33.7194 65.1577C33.1284 61.9809 35.0492 59.1735 37.8566 58.3609V53.5587H41.1812V58.3609C43.6931 59.0996 45.4661 61.316 45.4661 64.0495ZM39.5558 61.5376C38.226 61.5376 37.1178 62.6458 37.1178 63.9756C37.1178 65.3055 38.226 66.4136 39.5558 66.4136C40.8857 66.4136 41.9938 65.3055 41.9938 63.9756C41.9938 62.6458 40.8857 61.5376 39.5558 61.5376Z" fill="url(#paint9_linear_1138_949)"/>
<path d="M64.0495 45.4657C67.6696 45.4657 70.6247 42.1411 69.8859 38.3733C69.3688 36.0092 67.5218 34.1622 65.1577 33.7189C61.9809 33.1279 59.1735 35.0487 58.3609 37.8561L53.5587 37.8561L53.5587 41.1807L58.3609 41.1807C59.0996 43.6926 61.316 45.4657 64.0495 45.4657ZM61.5376 39.5554C61.5376 38.2255 62.6458 37.1174 63.9756 37.1174C65.3055 37.1174 66.4136 38.2255 66.4136 39.5554C66.4136 40.8852 65.3055 41.9934 63.9756 41.9934C62.6458 41.9934 61.5376 40.8852 61.5376 39.5554Z" fill="url(#paint10_linear_1138_949)"/>
<path d="M15.1819 45.4657C11.5619 45.4657 8.60671 42.1411 9.3455 38.3733C9.86265 36.0092 11.7096 34.1622 14.0737 33.7189C17.2505 33.1279 20.0579 35.0487 20.8706 37.8561L25.6727 37.8561L25.6727 41.1807L20.8706 41.1807C20.1318 43.6926 17.9154 45.4657 15.1819 45.4657ZM17.6938 39.5554C17.6938 38.2255 16.5856 37.1174 15.2558 37.1174C13.926 37.1174 12.8178 38.2255 12.8178 39.5554C12.8178 40.8852 13.926 41.9934 15.2558 41.9934C16.5856 41.9934 17.6938 40.8852 17.6938 39.5554Z" fill="url(#paint11_linear_1138_949)"/>
<g filter="url(#filter4_bi_1138_949)">
<circle cx="39.5292" cy="39.5214" r="16.2533" fill="#B2E7FE" fill-opacity="0.22"/>
<circle cx="39.5292" cy="39.5214" r="16.0686" stroke="url(#paint12_linear_1138_949)" stroke-width="0.369394"/>
<circle cx="39.5292" cy="39.5214" r="16.0686" stroke="url(#paint13_linear_1138_949)" stroke-width="0.369394"/>
</g>
<path d="M39.1533 28.4395C33.2341 28.4395 28.4409 33.2304 28.4409 39.1467C28.4409 45.0631 33.2341 49.8643 39.1533 49.8643C45.0725 49.8643 49.8658 45.0734 49.8658 39.157C49.8761 33.2304 45.0725 28.4395 39.1533 28.4395ZM39.1637 32.5592C41.0851 32.5592 42.6449 34.1287 42.6449 36.0491C42.6449 37.9593 41.0748 39.5184 39.1637 39.5184C37.2423 39.5184 35.6824 37.949 35.6824 36.0285C35.6824 34.108 37.2423 32.5592 39.1637 32.5592ZM44.6697 45.7445C40.9921 45.7445 37.3146 45.7445 33.637 45.7445C33.4097 45.6413 33.3478 45.4554 33.3478 45.218C33.3891 42.8535 35.1969 40.7471 37.5315 40.3651C37.8207 40.3135 38.1203 40.2928 38.4199 40.2928C38.9467 40.2825 39.4632 40.2722 39.9901 40.2928C41.9735 40.3651 43.43 41.3047 44.3804 43.0393C44.7523 43.7208 44.9176 44.4642 44.9486 45.2386C44.9692 45.4658 44.8969 45.6413 44.6697 45.7445Z" fill="white"/>
<defs>
<filter id="filter0_bi_1138_949" x="9.48956" y="8.01251" width="28.5902" height="28.6185" filterUnits="userSpaceOnUse" color-interpolation-filters="sRGB">
<feFlood flood-opacity="0" result="BackgroundImageFix"/>
<feGaussianBlur in="BackgroundImageFix" stdDeviation="3.69394"/>
<feComposite in2="SourceAlpha" operator="in" result="effect1_backgroundBlur_1138_949"/>
<feBlend mode="normal" in="SourceGraphic" in2="effect1_backgroundBlur_1138_949" result="shape"/>
<feColorMatrix in="SourceAlpha" type="matrix" values="0 0 0 0 0 0 0 0 0 0 0 0 0 0 0 0 0 0 127 0" result="hardAlpha"/>
<feOffset dx="-0.286666" dy="-0.286666"/>
<feComposite in2="hardAlpha" operator="arithmetic" k2="-1" k3="1"/>
<feColorMatrix type="matrix" values="0 0 0 0 1 0 0 0 0 1 0 0 0 0 1 0 0 0 0.08 0"/>
<feBlend mode="normal" in2="shape" result="effect2_innerShadow_1138_949"/>
</filter>
<filter id="filter1_bi_1138_949" x="9.48956" y="42.4725" width="28.5902" height="28.6185" filterUnits="userSpaceOnUse" color-interpolation-filters="sRGB">
<feFlood flood-opacity="0" result="BackgroundImageFix"/>
<feGaussianBlur in="BackgroundImageFix" stdDeviation="3.69394"/>
<feComposite in2="SourceAlpha" operator="in" result="effect1_backgroundBlur_1138_949"/>
<feBlend mode="normal" in="SourceGraphic" in2="effect1_backgroundBlur_1138_949" result="shape"/>
<feColorMatrix in="SourceAlpha" type="matrix" values="0 0 0 0 0 0 0 0 0 0 0 0 0 0 0 0 0 0 127 0" result="hardAlpha"/>
<feOffset dx="-0.286666" dy="-0.286666"/>
<feComposite in2="hardAlpha" operator="arithmetic" k2="-1" k3="1"/>
<feColorMatrix type="matrix" values="0 0 0 0 1 0 0 0 0 1 0 0 0 0 1 0 0 0 0.08 0"/>
<feBlend mode="normal" in2="shape" result="effect2_innerShadow_1138_949"/>
</filter>
<filter id="filter2_bi_1138_949" x="41.7635" y="8.01251" width="28.5902" height="28.6185" filterUnits="userSpaceOnUse" color-interpolation-filters="sRGB">
<feFlood flood-opacity="0" result="BackgroundImageFix"/>
<feGaussianBlur in="BackgroundImageFix" stdDeviation="3.69394"/>
<feComposite in2="SourceAlpha" operator="in" result="effect1_backgroundBlur_1138_949"/>
<feBlend mode="normal" in="SourceGraphic" in2="effect1_backgroundBlur_1138_949" result="shape"/>
<feColorMatrix in="SourceAlpha" type="matrix" values="0 0 0 0 0 0 0 0 0 0 0 0 0 0 0 0 0 0 127 0" result="hardAlpha"/>
<feOffset dx="-0.286666" dy="-0.286666"/>
<feComposite in2="hardAlpha" operator="arithmetic" k2="-1" k3="1"/>
<feColorMatrix type="matrix" values="0 0 0 0 1 0 0 0 0 1 0 0 0 0 1 0 0 0 0.08 0"/>
<feBlend mode="normal" in2="shape" result="effect2_innerShadow_1138_949"/>
</filter>
<filter id="filter3_bi_1138_949" x="41.7635" y="42.4725" width="28.5902" height="28.6185" filterUnits="userSpaceOnUse" color-interpolation-filters="sRGB">
<feFlood flood-opacity="0" result="BackgroundImageFix"/>
<feGaussianBlur in="BackgroundImageFix" stdDeviation="3.69394"/>
<feComposite in2="SourceAlpha" operator="in" result="effect1_backgroundBlur_1138_949"/>
<feBlend mode="normal" in="SourceGraphic" in2="effect1_backgroundBlur_1138_949" result="shape"/>
<feColorMatrix in="SourceAlpha" type="matrix" values="0 0 0 0 0 0 0 0 0 0 0 0 0 0 0 0 0 0 127 0" result="hardAlpha"/>
<feOffset dx="-0.286666" dy="-0.286666"/>
<feComposite in2="hardAlpha" operator="arithmetic" k2="-1" k3="1"/>
<feColorMatrix type="matrix" values="0 0 0 0 1 0 0 0 0 1 0 0 0 0 1 0 0 0 0.08 0"/>
<feBlend mode="normal" in2="shape" result="effect2_innerShadow_1138_949"/>
</filter>
<filter id="filter4_bi_1138_949" x="15.888" y="15.8802" width="47.2826" height="47.2826" filterUnits="userSpaceOnUse" color-interpolation-filters="sRGB">
<feFlood flood-opacity="0" result="BackgroundImageFix"/>
<feGaussianBlur in="BackgroundImageFix" stdDeviation="3.69394"/>
<feComposite in2="SourceAlpha" operator="in" result="effect1_backgroundBlur_1138_949"/>
<feBlend mode="normal" in="SourceGraphic" in2="effect1_backgroundBlur_1138_949" result="shape"/>
<feColorMatrix in="SourceAlpha" type="matrix" values="0 0 0 0 0 0 0 0 0 0 0 0 0 0 0 0 0 0 127 0" result="hardAlpha"/>
<feOffset dx="-0.286666" dy="-0.286666"/>
<feComposite in2="hardAlpha" operator="arithmetic" k2="-1" k3="1"/>
<feColorMatrix type="matrix" values="0 0 0 0 1 0 0 0 0 1 0 0 0 0 1 0 0 0 0.08 0"/>
<feBlend mode="normal" in2="shape" result="effect2_innerShadow_1138_949"/>
</filter>
<linearGradient id="paint0_linear_1138_949" x1="45.1175" y1="10.6821" x2="29.0659" y2="13.2539" gradientUnits="userSpaceOnUse">
<stop stop-color="#1CEEA1"/>
<stop offset="1" stop-color="#B9FFEE"/>
</linearGradient>
<linearGradient id="paint1_linear_1138_949" x1="14.4028" y1="21.3071" x2="20.9585" y2="20.2349" gradientUnits="userSpaceOnUse">
<stop stop-color="#82DD68" stop-opacity="0.1"/>
<stop offset="1" stop-color="white" stop-opacity="0"/>
</linearGradient>
<linearGradient id="paint2_linear_1138_949" x1="26.3964" y1="30.3424" x2="28.3696" y2="15.4767" gradientUnits="userSpaceOnUse">
<stop stop-color="white" stop-opacity="0"/>
<stop offset="1" stop-color="white" stop-opacity="0.04"/>
</linearGradient>
<linearGradient id="paint3_linear_1138_949" x1="14.4028" y1="57.7964" x2="20.9585" y2="58.8686" gradientUnits="userSpaceOnUse">
<stop stop-color="#82DD68" stop-opacity="0.1"/>
<stop offset="1" stop-color="white" stop-opacity="0"/>
</linearGradient>
<linearGradient id="paint4_linear_1138_949" x1="26.3964" y1="48.7611" x2="28.3696" y2="63.6268" gradientUnits="userSpaceOnUse">
<stop stop-color="white" stop-opacity="0"/>
<stop offset="1" stop-color="white" stop-opacity="0.04"/>
</linearGradient>
<linearGradient id="paint5_linear_1138_949" x1="65.4404" y1="21.3071" x2="58.8847" y2="20.2349" gradientUnits="userSpaceOnUse">
<stop stop-color="#82DD68" stop-opacity="0.1"/>
<stop offset="1" stop-color="white" stop-opacity="0"/>
</linearGradient>
<linearGradient id="paint6_linear_1138_949" x1="53.4468" y1="30.3424" x2="51.4736" y2="15.4767" gradientUnits="userSpaceOnUse">
<stop stop-color="white" stop-opacity="0.18"/>
<stop offset="1" stop-color="white" stop-opacity="0.04"/>
</linearGradient>
<linearGradient id="paint7_linear_1138_949" x1="65.4404" y1="57.7964" x2="58.8847" y2="58.8686" gradientUnits="userSpaceOnUse">
<stop stop-color="#82DD68" stop-opacity="0.1"/>
<stop offset="1" stop-color="white" stop-opacity="0"/>
</linearGradient>
<linearGradient id="paint8_linear_1138_949" x1="53.4468" y1="48.7611" x2="51.4736" y2="63.6268" gradientUnits="userSpaceOnUse">
<stop stop-color="white" stop-opacity="0"/>
<stop offset="1" stop-color="white" stop-opacity="0.04"/>
</linearGradient>
<linearGradient id="paint9_linear_1138_949" x1="45.1175" y1="68.5493" x2="29.0659" y2="65.9775" gradientUnits="userSpaceOnUse">
<stop stop-color="#1CEEA1"/>
<stop offset="1" stop-color="#B9FFEE"/>
</linearGradient>
<linearGradient id="paint10_linear_1138_949" x1="68.5493" y1="45.117" x2="65.9775" y2="29.0654" gradientUnits="userSpaceOnUse">
<stop stop-color="#1CEEA1"/>
<stop offset="1" stop-color="#B9FFEE"/>
</linearGradient>
<linearGradient id="paint11_linear_1138_949" x1="10.6821" y1="45.117" x2="13.2539" y2="29.0654" gradientUnits="userSpaceOnUse">
<stop stop-color="#1CEEA1"/>
<stop offset="1" stop-color="#B9FFEE"/>
</linearGradient>
<linearGradient id="paint12_linear_1138_949" x1="23.2759" y1="23.2681" x2="34.5263" y2="34.4855" gradientUnits="userSpaceOnUse">
<stop stop-color="#82DD68" stop-opacity="0.1"/>
<stop offset="1" stop-color="white" stop-opacity="0"/>
</linearGradient>
<linearGradient id="paint13_linear_1138_949" x1="29.0124" y1="52.6675" x2="53.3544" y2="26.8177" gradientUnits="userSpaceOnUse">
<stop stop-color="white" stop-opacity="0"/>
<stop offset="1" stop-color="white" stop-opacity="0.2"/>
</linearGradient>
</defs>
</svg>
