<svg width="80" height="80" viewBox="0 0 80 80" fill="none" xmlns="http://www.w3.org/2000/svg">
<circle cx="65.6806" cy="50.6381" r="7.64785" fill="url(#paint0_linear_1138_941)"/>
<g filter="url(#filter0_bi_1138_941)">
<circle cx="37.3389" cy="42.4517" r="30.5914" fill="#B2E7FE" fill-opacity="0.12"/>
<circle cx="37.3389" cy="42.4517" r="30.4168" stroke="url(#paint1_linear_1138_941)" stroke-width="0.349121"/>
<circle cx="37.3389" cy="42.4517" r="30.4168" stroke="url(#paint2_linear_1138_941)" stroke-width="0.349121"/>
</g>
<circle cx="38.1497" cy="15.0092" r="5.84835" transform="rotate(-59.4516 38.1497 15.0092)" fill="url(#paint3_linear_1138_941)"/>
<circle cx="13.524" cy="55.4972" r="5.84835" transform="rotate(-156.841 13.524 55.4972)" fill="url(#paint4_linear_1138_941)"/>
<g filter="url(#filter1_bi_1138_941)">
<circle cx="37.3389" cy="42.4512" r="25.1929" fill="#B2E7FE" fill-opacity="0.12"/>
<circle cx="37.3389" cy="42.4512" r="23.3934" stroke="url(#paint5_linear_1138_941)" stroke-width="3.59899"/>
<circle cx="37.3389" cy="42.4512" r="23.3934" stroke="url(#paint6_linear_1138_941)" stroke-width="3.59899"/>
</g>
<path d="M22.1724 37.7611C22.1724 35.9881 22.1724 34.2997 22.1724 32.5267C22.1724 30.5006 23.1521 29.3186 25.1114 28.9809C29.1117 28.3055 32.7037 26.7015 35.9693 24.2531C37.1939 23.3245 38.5817 23.3245 39.8063 24.2531C43.0718 26.7859 46.7455 28.3055 50.7458 28.9809C52.5418 29.3186 53.5215 30.5006 53.5215 32.3579C53.5215 34.8906 53.3582 37.5078 53.5215 40.0405C53.8481 44.515 52.2153 48.2297 49.6029 51.6067C46.6639 55.4058 43.2351 58.6139 39.5614 61.5688C38.5001 62.413 37.1122 62.4974 36.1326 61.6532C31.7241 58.1074 27.5605 54.2238 24.4583 49.4116C22.8255 46.9633 21.9275 44.2617 22.0908 41.2225C22.254 40.1249 22.1724 38.943 22.1724 37.7611ZM34.6631 48.8207C36.8673 48.8207 38.9899 48.8207 41.1125 48.8207C41.1125 48.7362 41.1941 48.6518 41.1125 48.6518C40.7859 46.5412 40.4594 44.515 40.0512 42.4888C39.9696 41.8979 39.9696 41.4757 40.4594 40.9692C42.0921 39.534 42.0921 37.0012 40.6227 35.3972C39.0715 33.7087 36.5407 33.7087 34.9896 35.3972C33.5201 37.0012 33.5201 39.534 35.1529 40.9692C35.7244 41.4757 35.7244 41.8979 35.6427 42.4888C35.3162 44.515 34.9896 46.6256 34.6631 48.8207Z" fill="white"/>
<defs>
<filter id="filter0_bi_1138_941" x="-2.24991" y="2.86288" width="79.1776" height="79.1776" filterUnits="userSpaceOnUse" color-interpolation-filters="sRGB">
<feFlood flood-opacity="0" result="BackgroundImageFix"/>
<feGaussianBlur in="BackgroundImageFix" stdDeviation="4.49873"/>
<feComposite in2="SourceAlpha" operator="in" result="effect1_backgroundBlur_1138_941"/>
<feBlend mode="normal" in="SourceGraphic" in2="effect1_backgroundBlur_1138_941" result="shape"/>
<feColorMatrix in="SourceAlpha" type="matrix" values="0 0 0 0 0 0 0 0 0 0 0 0 0 0 0 0 0 0 127 0" result="hardAlpha"/>
<feOffset dx="-0.349121" dy="-0.349121"/>
<feComposite in2="hardAlpha" operator="arithmetic" k2="-1" k3="1"/>
<feColorMatrix type="matrix" values="0 0 0 0 1 0 0 0 0 1 0 0 0 0 1 0 0 0 0.08 0"/>
<feBlend mode="normal" in2="shape" result="effect2_innerShadow_1138_941"/>
</filter>
<filter id="filter1_bi_1138_941" x="3.14853" y="8.26083" width="68.3807" height="68.3807" filterUnits="userSpaceOnUse" color-interpolation-filters="sRGB">
<feFlood flood-opacity="0" result="BackgroundImageFix"/>
<feGaussianBlur in="BackgroundImageFix" stdDeviation="4.49873"/>
<feComposite in2="SourceAlpha" operator="in" result="effect1_backgroundBlur_1138_941"/>
<feBlend mode="normal" in="SourceGraphic" in2="effect1_backgroundBlur_1138_941" result="shape"/>
<feColorMatrix in="SourceAlpha" type="matrix" values="0 0 0 0 0 0 0 0 0 0 0 0 0 0 0 0 0 0 127 0" result="hardAlpha"/>
<feOffset dx="-0.349121" dy="-0.349121"/>
<feComposite in2="hardAlpha" operator="arithmetic" k2="-1" k3="1"/>
<feColorMatrix type="matrix" values="0 0 0 0 1 0 0 0 0 1 0 0 0 0 1 0 0 0 0.08 0"/>
<feBlend mode="normal" in2="shape" result="effect2_innerShadow_1138_941"/>
</filter>
<linearGradient id="paint0_linear_1138_941" x1="72.8785" y1="44.3399" x2="52.6342" y2="48.8386" gradientUnits="userSpaceOnUse">
<stop stop-color="#1CEEA1"/>
<stop offset="1" stop-color="#B9FFEE"/>
</linearGradient>
<linearGradient id="paint1_linear_1138_941" x1="6.74756" y1="11.8604" x2="27.9226" y2="32.9733" gradientUnits="userSpaceOnUse">
<stop stop-color="#82DD68" stop-opacity="0.1"/>
<stop offset="1" stop-color="white" stop-opacity="0"/>
</linearGradient>
<linearGradient id="paint2_linear_1138_941" x1="17.5445" y1="67.1948" x2="63.3602" y2="18.5412" gradientUnits="userSpaceOnUse">
<stop stop-color="white" stop-opacity="0.31"/>
<stop offset="1" stop-color="white" stop-opacity="0.04"/>
</linearGradient>
<linearGradient id="paint3_linear_1138_941" x1="43.6541" y1="10.1929" x2="28.1731" y2="13.6331" gradientUnits="userSpaceOnUse">
<stop stop-color="#1CEEA1"/>
<stop offset="1" stop-color="#B9FFEE"/>
</linearGradient>
<linearGradient id="paint4_linear_1138_941" x1="19.0284" y1="50.6809" x2="3.54741" y2="54.1211" gradientUnits="userSpaceOnUse">
<stop stop-color="#1CEEA1"/>
<stop offset="1" stop-color="#B9FFEE"/>
</linearGradient>
<linearGradient id="paint5_linear_1138_941" x1="12.146" y1="17.2583" x2="29.5842" y2="34.6455" gradientUnits="userSpaceOnUse">
<stop stop-color="#82DD68" stop-opacity="0.1"/>
<stop offset="1" stop-color="white" stop-opacity="0"/>
</linearGradient>
<linearGradient id="paint6_linear_1138_941" x1="21.0376" y1="62.8278" x2="58.7682" y2="22.7602" gradientUnits="userSpaceOnUse">
<stop stop-color="white" stop-opacity="0.06"/>
<stop offset="1" stop-color="white" stop-opacity="0.56"/>
</linearGradient>
</defs>
</svg>
