<svg width="80" height="80" viewBox="0 0 80 80" fill="none" xmlns="http://www.w3.org/2000/svg">
<path d="M56.3314 21.4795H23.9916C22.8054 21.4795 21.8064 22.3553 21.8064 23.4189V55.8008C21.8064 56.8643 22.8054 57.7402 23.9916 57.7402H56.3314C57.5176 57.7402 58.5165 56.8643 58.5165 55.8008V23.4815C58.5165 22.3553 57.5176 21.4795 56.3314 21.4795ZM54.9579 52.2972C54.9579 53.3608 53.9589 54.2367 52.7727 54.2367H27.4878C26.3016 54.2367 25.3026 53.3608 25.3026 52.2972V27.0476C25.3026 25.984 26.3016 25.1081 27.4878 25.1081H52.7727C53.9589 25.1081 54.9579 25.984 54.9579 27.0476V52.2972Z" fill="url(#paint0_linear_1138_1087)"/>
<path d="M31.5458 11.2969H28.9237V18.7419H31.5458V11.2969Z" fill="url(#paint1_linear_1138_1087)"/>
<path d="M38.0388 11.2969H35.4166V18.7419H38.0388V11.2969Z" fill="url(#paint2_linear_1138_1087)"/>
<path d="M44.8439 11.2969H42.2217V18.7419H44.8439V11.2969Z" fill="url(#paint3_linear_1138_1087)"/>
<path d="M51.3992 11.2969H48.7771V18.7419H51.3992V11.2969Z" fill="url(#paint4_linear_1138_1087)"/>
<path d="M31.5458 60.5548H28.9237V67.9998H31.5458V60.5548Z" fill="url(#paint5_linear_1138_1087)"/>
<path d="M38.0388 60.5548H35.4166V67.9998H38.0388V60.5548Z" fill="url(#paint6_linear_1138_1087)"/>
<path d="M44.8439 60.5548H42.2217V67.9998H44.8439V60.5548Z" fill="url(#paint7_linear_1138_1087)"/>
<path d="M51.3992 60.5548H48.7771V67.9998H51.3992V60.5548Z" fill="url(#paint8_linear_1138_1087)"/>
<path d="M69.2416 31.2735H61.8122V33.9011H69.2416V31.2735Z" fill="url(#paint9_linear_1138_1087)"/>
<path d="M69.2416 37.7175H61.8122V40.3451H69.2416V37.7175Z" fill="url(#paint10_linear_1138_1087)"/>
<path d="M69.2416 44.5994H61.8122V47.2271H69.2416V44.5994Z" fill="url(#paint11_linear_1138_1087)"/>
<path d="M69.2416 51.1061H61.8122V53.7337H69.2416V51.1061Z" fill="url(#paint12_linear_1138_1087)"/>
<path d="M18.8142 31.2735H11.3848V33.9011H18.8142V31.2735Z" fill="url(#paint13_linear_1138_1087)"/>
<path d="M18.8142 37.7175H11.3848V40.3451H18.8142V37.7175Z" fill="url(#paint14_linear_1138_1087)"/>
<path d="M18.8142 44.5994H11.3848V47.2271H18.8142V44.5994Z" fill="url(#paint15_linear_1138_1087)"/>
<path d="M18.8142 51.1061H11.3848V53.7337H18.8142V51.1061Z" fill="url(#paint16_linear_1138_1087)"/>
<path d="M29.9707 35.8081H35.1304V37.1468H31.4659V38.5344H34.6906V39.8732H31.4659V41.3097H35.1792V42.6484H29.9707V35.8081ZM35.9309 35.8081H37.5921L39.3804 40.6256L41.1687 35.8081H42.7908L40.0253 42.6973H38.6964L35.9309 35.8081ZM43.8462 35.8081H45.4683L47.2664 38.7006L49.0644 35.8081H50.6866V42.6484H49.1915V38.1826L47.2664 41.1045H47.2273L45.3218 38.212V42.6484H43.8462V35.8081Z" fill="url(#paint17_linear_1138_1087)"/>
<defs>
<linearGradient id="paint0_linear_1138_1087" x1="40.3488" y1="15.0072" x2="40.3488" y2="69.6875" gradientUnits="userSpaceOnUse">
<stop stop-color="#1BDE9D"/>
<stop offset="1" stop-color="#1C7759"/>
</linearGradient>
<linearGradient id="paint1_linear_1138_1087" x1="40.3488" y1="15.0072" x2="40.3488" y2="69.6875" gradientUnits="userSpaceOnUse">
<stop stop-color="#1BDE9D"/>
<stop offset="1" stop-color="#1C7759"/>
</linearGradient>
<linearGradient id="paint2_linear_1138_1087" x1="40.3488" y1="15.0072" x2="40.3488" y2="69.6875" gradientUnits="userSpaceOnUse">
<stop stop-color="#1BDE9D"/>
<stop offset="1" stop-color="#1C7759"/>
</linearGradient>
<linearGradient id="paint3_linear_1138_1087" x1="40.3488" y1="15.0072" x2="40.3488" y2="69.6875" gradientUnits="userSpaceOnUse">
<stop stop-color="#1BDE9D"/>
<stop offset="1" stop-color="#1C7759"/>
</linearGradient>
<linearGradient id="paint4_linear_1138_1087" x1="40.3488" y1="15.0072" x2="40.3488" y2="69.6875" gradientUnits="userSpaceOnUse">
<stop stop-color="#1BDE9D"/>
<stop offset="1" stop-color="#1C7759"/>
</linearGradient>
<linearGradient id="paint5_linear_1138_1087" x1="40.3488" y1="15.0072" x2="40.3488" y2="69.6875" gradientUnits="userSpaceOnUse">
<stop stop-color="#1BDE9D"/>
<stop offset="1" stop-color="#1C7759"/>
</linearGradient>
<linearGradient id="paint6_linear_1138_1087" x1="40.3488" y1="15.0072" x2="40.3488" y2="69.6875" gradientUnits="userSpaceOnUse">
<stop stop-color="#1BDE9D"/>
<stop offset="1" stop-color="#1C7759"/>
</linearGradient>
<linearGradient id="paint7_linear_1138_1087" x1="40.3488" y1="15.0072" x2="40.3488" y2="69.6875" gradientUnits="userSpaceOnUse">
<stop stop-color="#1BDE9D"/>
<stop offset="1" stop-color="#1C7759"/>
</linearGradient>
<linearGradient id="paint8_linear_1138_1087" x1="40.3488" y1="15.0072" x2="40.3488" y2="69.6875" gradientUnits="userSpaceOnUse">
<stop stop-color="#1BDE9D"/>
<stop offset="1" stop-color="#1C7759"/>
</linearGradient>
<linearGradient id="paint9_linear_1138_1087" x1="40.3488" y1="15.0072" x2="40.3488" y2="69.6875" gradientUnits="userSpaceOnUse">
<stop stop-color="#1BDE9D"/>
<stop offset="1" stop-color="#1C7759"/>
</linearGradient>
<linearGradient id="paint10_linear_1138_1087" x1="40.3488" y1="15.0072" x2="40.3488" y2="69.6875" gradientUnits="userSpaceOnUse">
<stop stop-color="#1BDE9D"/>
<stop offset="1" stop-color="#1C7759"/>
</linearGradient>
<linearGradient id="paint11_linear_1138_1087" x1="40.3488" y1="15.0072" x2="40.3488" y2="69.6875" gradientUnits="userSpaceOnUse">
<stop stop-color="#1BDE9D"/>
<stop offset="1" stop-color="#1C7759"/>
</linearGradient>
<linearGradient id="paint12_linear_1138_1087" x1="40.3488" y1="15.0072" x2="40.3488" y2="69.6875" gradientUnits="userSpaceOnUse">
<stop stop-color="#1BDE9D"/>
<stop offset="1" stop-color="#1C7759"/>
</linearGradient>
<linearGradient id="paint13_linear_1138_1087" x1="40.3488" y1="15.0072" x2="40.3488" y2="69.6875" gradientUnits="userSpaceOnUse">
<stop stop-color="#1BDE9D"/>
<stop offset="1" stop-color="#1C7759"/>
</linearGradient>
<linearGradient id="paint14_linear_1138_1087" x1="40.3488" y1="15.0072" x2="40.3488" y2="69.6875" gradientUnits="userSpaceOnUse">
<stop stop-color="#1BDE9D"/>
<stop offset="1" stop-color="#1C7759"/>
</linearGradient>
<linearGradient id="paint15_linear_1138_1087" x1="40.3488" y1="15.0072" x2="40.3488" y2="69.6875" gradientUnits="userSpaceOnUse">
<stop stop-color="#1BDE9D"/>
<stop offset="1" stop-color="#1C7759"/>
</linearGradient>
<linearGradient id="paint16_linear_1138_1087" x1="40.3488" y1="15.0072" x2="40.3488" y2="69.6875" gradientUnits="userSpaceOnUse">
<stop stop-color="#1BDE9D"/>
<stop offset="1" stop-color="#1C7759"/>
</linearGradient>
<linearGradient id="paint17_linear_1138_1087" x1="40.3834" y1="37.31" x2="40.3834" y2="44.4911" gradientUnits="userSpaceOnUse">
<stop stop-color="#1EEAA6"/>
<stop offset="1" stop-color="#1C916A"/>
</linearGradient>
</defs>
</svg>
