<svg width="80" height="80" viewBox="0 0 80 80" fill="none" xmlns="http://www.w3.org/2000/svg">
<path d="M22.6057 32.2251C27.1288 32.2251 30.7954 28.5585 30.7954 24.0354C30.7954 19.5124 27.1288 15.8457 22.6057 15.8457C18.0827 15.8457 14.416 19.5124 14.416 24.0354C14.416 28.5585 18.0827 32.2251 22.6057 32.2251Z" fill="url(#paint0_linear_1138_1032)"/>
<path d="M40.5647 50.1841C45.0878 50.1841 48.7544 46.5175 48.7544 41.9944C48.7544 37.4713 45.0878 33.8047 40.5647 33.8047C36.0417 33.8047 32.375 37.4713 32.375 41.9944C32.375 46.5175 36.0417 50.1841 40.5647 50.1841Z" fill="url(#paint1_linear_1138_1032)"/>
<path d="M49.3055 52.5466C50.3059 52.5466 51.1169 51.7356 51.1169 50.7352C51.1169 49.7348 50.3059 48.9238 49.3055 48.9238C48.3051 48.9238 47.4941 49.7348 47.4941 50.7352C47.4941 51.7356 48.3051 52.5466 49.3055 52.5466Z" fill="url(#paint2_linear_1138_1032)"/>
<path d="M31.7088 34.9499C32.7092 34.9499 33.5202 34.1389 33.5202 33.1385C33.5202 32.1381 32.7092 31.3271 31.7088 31.3271C30.7084 31.3271 29.8975 32.1381 29.8975 33.1385C29.8975 34.1389 30.7084 34.9499 31.7088 34.9499Z" fill="url(#paint3_linear_1138_1032)"/>
<path d="M58.0193 67.6387C62.5424 67.6387 66.209 63.972 66.209 59.449C66.209 54.9259 62.5424 51.2593 58.0193 51.2593C53.4962 51.2593 49.8296 54.9259 49.8296 59.449C49.8296 63.972 53.4962 67.6387 58.0193 67.6387Z" fill="url(#paint4_linear_1138_1032)"/>
<path d="M48.6781 64.97L43.6319 62.5876L44.5253 65.0693C42.937 65.4002 41.299 65.5822 39.6115 65.5822C26.5741 65.5822 16.0019 55.01 16.0019 41.9727C16.0019 38.9119 16.581 36 17.6399 33.3197C16.9946 33.1046 16.399 32.7903 15.8365 32.4263C14.6453 35.3713 14 38.5975 14 41.9727C14 56.1185 25.4656 67.5841 39.6115 67.5841C41.5307 67.5841 43.4002 67.369 45.2036 66.972L46.2956 69.9997L48.6781 64.97Z" fill="url(#paint5_linear_1138_1032)"/>
<path d="M53.7815 24.7905C53.4263 16.6303 46.5297 10.2878 38.3624 10.6434C34.7342 10.8013 31.472 12.2595 28.9885 14.5509C29.4322 14.7948 29.8471 15.0865 30.2472 15.3942C32.4367 13.4563 35.276 12.2333 38.4256 12.0962C45.7747 11.7762 52.0093 17.4817 52.3303 24.8537C52.4406 27.3883 51.8333 29.7838 50.7011 31.8461L48.6878 30.0137L48.9145 35.222L54.1175 34.9955L51.7974 32.8667C53.1793 30.4994 53.9094 27.7269 53.7815 24.7905Z" fill="url(#paint6_linear_1138_1032)"/>
<defs>
<linearGradient id="paint0_linear_1138_1032" x1="22.6057" y1="32.2251" x2="22.6837" y2="14.8317" gradientUnits="userSpaceOnUse">
<stop stop-color="#14523D"/>
<stop offset="1" stop-color="#33CC99"/>
</linearGradient>
<linearGradient id="paint1_linear_1138_1032" x1="40.5647" y1="50.1841" x2="40.6427" y2="32.7907" gradientUnits="userSpaceOnUse">
<stop stop-color="#14523D"/>
<stop offset="1" stop-color="#33CC99"/>
</linearGradient>
<linearGradient id="paint2_linear_1138_1032" x1="49.3055" y1="52.5466" x2="49.3228" y2="48.6996" gradientUnits="userSpaceOnUse">
<stop stop-color="#14523D"/>
<stop offset="1" stop-color="#33CC99"/>
</linearGradient>
<linearGradient id="paint3_linear_1138_1032" x1="31.7088" y1="34.9499" x2="31.7261" y2="31.1029" gradientUnits="userSpaceOnUse">
<stop stop-color="#14523D"/>
<stop offset="1" stop-color="#33CC99"/>
</linearGradient>
<linearGradient id="paint4_linear_1138_1032" x1="58.0193" y1="67.6387" x2="58.0973" y2="50.2453" gradientUnits="userSpaceOnUse">
<stop stop-color="#14523D"/>
<stop offset="1" stop-color="#33CC99"/>
</linearGradient>
<linearGradient id="paint5_linear_1138_1032" x1="31.339" y1="69.9997" x2="31.5329" y2="30.1004" gradientUnits="userSpaceOnUse">
<stop stop-color="#14523D"/>
<stop offset="1" stop-color="#33CC99"/>
</linearGradient>
<linearGradient id="paint6_linear_1138_1032" x1="42.075" y1="35.5197" x2="41.0421" y2="8.97679" gradientUnits="userSpaceOnUse">
<stop stop-color="#14523D"/>
<stop offset="1" stop-color="#33CC99"/>
</linearGradient>
</defs>
</svg>
