<svg width="80" height="80" viewBox="0 0 80 80" fill="none" xmlns="http://www.w3.org/2000/svg">
<path d="M60.5544 36.6936C60.2641 33.6284 60.4595 30.5687 60.4595 27.5035C60.4595 25.1808 59.2088 23.7905 56.9029 23.4165C51.7104 22.579 47.0986 20.7253 42.872 17.755C41.2361 16.6383 39.4104 16.6383 37.875 17.755C33.6428 20.7253 29.031 22.5846 23.9334 23.4165C21.4321 23.7905 20.187 25.1808 20.187 27.6877C20.187 29.7312 20.187 31.864 20.187 33.9075C20.187 35.2978 20.2819 36.6936 20.2819 38.1788C19.9916 41.8917 21.2423 45.0463 23.2634 48.0222C27.3002 53.7786 32.5876 58.4183 38.2546 62.6896C39.6002 63.7113 41.3311 63.6164 42.6766 62.5946C47.3834 59.066 51.8054 55.1688 55.5574 50.6184C58.9185 46.537 61.0346 42.0815 60.5544 36.6936ZM54.1615 49.6581C50.7557 53.7897 46.7469 57.3296 42.47 60.5344C41.2473 61.4612 39.6784 61.545 38.4556 60.6181C33.3078 56.7377 28.5062 52.5223 24.8435 47.2963C23.0122 44.5996 21.8788 41.7353 22.1412 38.363C22.1412 37.0119 22.0518 35.75 22.0518 34.4882C22.0518 32.6345 22.0518 30.6971 22.0518 28.8435C22.0518 26.5655 23.1853 25.3036 25.4521 24.9686C30.0751 24.2093 34.2626 22.5231 38.1039 19.8264C39.4997 18.8158 41.158 18.8158 42.6431 19.8264C46.4845 22.5231 50.6719 24.2093 55.3843 24.9686C57.478 25.3036 58.6114 26.571 58.6114 28.676C58.6114 31.4564 58.4383 34.2369 58.7008 37.023C59.1363 41.9028 57.2156 45.9508 54.1615 49.6581Z" fill="url(#paint0_linear_1138_1062)"/>
<path d="M36.0317 35.3984C36.0317 34.6884 36.0206 34.006 36.0317 33.3292C36.0648 31.077 37.7113 29.2907 39.9931 29.0189C42.076 28.7692 44.1424 30.206 44.6176 32.3251C44.7888 33.0796 44.7225 33.884 44.7612 34.6662C44.7723 34.9047 44.7612 35.1377 44.7612 35.4151C44.9491 35.4262 45.1038 35.4317 45.2585 35.4428C46.148 35.4872 46.8331 36.1363 46.8441 37.0239C46.8662 39.7366 46.8662 42.4548 46.8441 45.1675C46.8386 46.0884 46.1425 46.7319 45.1866 46.7541C44.2584 46.7763 43.3302 46.7597 42.402 46.7597C40.2307 46.7597 38.0538 46.7597 35.8825 46.7597C34.551 46.7597 33.9487 46.1439 33.9487 44.8014C33.9487 42.3383 33.9487 39.8753 33.9487 37.4177C33.9487 36.0697 34.4736 35.5149 35.8217 35.4373C35.877 35.4317 35.9267 35.4151 36.0317 35.3984ZM43.17 35.4151C43.17 34.705 43.1755 34.0338 43.17 33.357C43.1534 31.9535 42.1258 30.8162 40.7114 30.6276C39.3909 30.4501 38.0262 31.3211 37.7555 32.6746C37.5787 33.5567 37.6339 34.4831 37.5842 35.4206C39.4848 35.4151 41.2915 35.4151 43.17 35.4151ZM41.4351 43.8639C41.4572 43.7918 41.4683 43.7807 41.4628 43.7696C41.3633 43.0595 41.2804 42.3439 41.1589 41.6394C41.1092 41.3453 41.1589 41.1678 41.402 40.9681C42.0539 40.43 42.0926 39.4537 41.5346 38.8268C40.971 38.1944 40.0152 38.1334 39.3909 38.6936C38.7555 39.265 38.6395 40.2636 39.2583 40.8239C39.6561 41.1845 39.6837 41.5229 39.5787 41.9667C39.5566 42.0721 39.5401 42.1775 39.529 42.2829C39.4572 42.8043 39.3854 43.3258 39.3135 43.8694C40.0705 43.8639 40.75 43.8639 41.4351 43.8639Z" fill="url(#paint1_linear_1138_1062)"/>
<path d="M65.7245 35.8528C65.3616 32.0003 65.6016 28.1534 65.6016 24.3009C65.6016 21.3864 64.0327 19.6332 61.135 19.1698C54.6137 18.1201 48.8182 15.7863 43.5029 12.0511C41.4482 10.6496 39.1534 10.6496 37.2216 12.0511C31.9063 15.7863 26.1108 18.1201 19.7123 19.1698C16.5689 19.6332 15 21.3864 15 24.5354C15 27.1037 15 29.7837 15 32.352C15 34.0996 15.1228 35.8528 15.1228 37.7176C14.7599 42.3852 16.3288 46.3494 18.8637 50.0846C23.9333 57.3206 30.5775 63.1496 37.7018 68.5152C39.3935 69.7994 41.5654 69.6821 43.2572 68.3979C49.1755 63.9648 54.7309 59.0626 59.4377 53.3509C63.6698 48.2198 66.3275 42.6197 65.7245 35.8528ZM57.6901 52.1393C53.4133 57.3318 48.3715 61.7761 42.9948 65.8017C41.4594 66.9686 39.4884 67.0747 37.953 65.9078C31.482 61.0335 25.452 55.7406 20.8457 49.1746C18.5454 45.7855 17.1217 42.1842 17.4511 37.9465C17.4511 36.2492 17.3394 34.6635 17.3394 33.0723C17.3394 30.744 17.3394 28.3041 17.3394 25.9759C17.3394 23.1172 18.7632 21.526 21.6162 21.1016C27.4285 20.1469 32.688 18.0308 37.5175 14.6417C39.2707 13.3687 41.3533 13.3687 43.2181 14.6417C48.0421 18.0364 53.3016 20.1525 59.2255 21.1072C61.8552 21.5315 63.2846 23.1172 63.2846 25.7693C63.2846 29.2644 63.0668 32.7596 63.3962 36.2548C63.9378 42.3964 61.5258 47.4828 57.6901 52.1393Z" fill="url(#paint2_linear_1138_1062)"/>
<path d="M55.6798 37.5302C55.462 35.2075 55.6072 32.8849 55.6072 30.5622C55.6072 28.8035 54.658 27.7482 52.9104 27.4635C48.9742 26.8326 45.479 25.42 42.2686 23.1699C41.0291 22.3268 39.6445 22.3268 38.4775 23.1699C35.2727 25.42 31.772 26.8326 27.9083 27.4635C26.0156 27.7426 25.0664 28.8035 25.0664 30.7018C25.0664 32.2484 25.0664 33.8676 25.0664 35.4197C25.0664 36.475 25.139 37.5302 25.139 38.658C24.9212 41.472 25.8704 43.8673 27.4002 46.1174C30.4655 50.4835 34.4743 54.0066 38.7735 57.2449C39.7952 58.021 41.1073 57.9484 42.1235 57.1723C45.6968 54.4979 49.0468 51.5388 51.8887 48.0939C54.4403 44.9951 56.0483 41.6172 55.6798 37.5302ZM51.1126 47.5579C48.4605 50.7738 45.3394 53.532 42.0062 56.0222C41.057 56.7424 39.8343 56.8094 38.8795 56.0892C34.8763 53.0686 31.1411 49.7856 28.288 45.7154C26.8587 43.616 25.9765 41.3827 26.1831 38.7585C26.1831 37.7089 26.1161 36.7262 26.1161 35.738C26.1161 34.2919 26.1161 32.7844 26.1161 31.3383C26.1161 29.5684 26.9982 28.5801 28.7681 28.3177C32.3694 27.7259 35.6301 26.4138 38.6171 24.3145C39.7059 23.5272 40.9956 23.5272 42.1514 24.3145C45.1384 26.4138 48.3991 27.7259 52.0729 28.3177C53.7033 28.5801 54.5854 29.5628 54.5854 31.2043C54.5854 33.3706 54.4514 35.537 54.6524 37.7033C54.9874 41.5167 53.4911 44.6657 51.1126 47.5579Z" fill="url(#paint3_linear_1138_1062)"/>
<defs>
<linearGradient id="paint0_linear_1138_1062" x1="40.4043" y1="64.2984" x2="40.4043" y2="20.0491" gradientUnits="userSpaceOnUse">
<stop stop-color="#1BD294"/>
<stop offset="0.90625" stop-color="#017D54"/>
</linearGradient>
<linearGradient id="paint1_linear_1138_1062" x1="33.9493" y1="37.877" x2="46.8579" y2="37.877" gradientUnits="userSpaceOnUse">
<stop stop-color="#1BD294"/>
<stop offset="0.991" stop-color="#017D54"/>
</linearGradient>
<linearGradient id="paint2_linear_1138_1062" x1="40.4042" y1="70.5382" x2="40.4042" y2="14.9339" gradientUnits="userSpaceOnUse">
<stop stop-color="#1BD294"/>
<stop offset="1" stop-color="#017D54"/>
</linearGradient>
<linearGradient id="paint3_linear_1138_1062" x1="40.4039" y1="58.4636" x2="40.4039" y2="24.911" gradientUnits="userSpaceOnUse">
<stop stop-color="#1BD294"/>
<stop offset="1" stop-color="#017D54"/>
</linearGradient>
</defs>
</svg>
