<svg width="80" height="80" viewBox="0 0 80 80" fill="none" xmlns="http://www.w3.org/2000/svg">
<rect x="16.3921" y="14.6299" width="49.503" height="36.4268" rx="3.73608" fill="url(#paint0_linear_1138_983)"/>
<g filter="url(#filter0_bi_1138_983)">
<path d="M70.0001 32.9072C70.0001 28.8672 66.7706 25.5921 62.7867 25.5921H43.6851C42.0832 25.5921 40.6067 24.7132 39.8258 23.2948C39.0449 21.8765 37.5684 20.9976 35.9666 20.9976H16.9853C13.0015 20.9976 9.77197 24.2727 9.77197 28.3127V57.6585C9.77197 61.6986 13.0015 64.9737 16.9853 64.9737H62.7868C66.7706 64.9737 70.0001 61.6986 70.0001 57.6585V32.9072Z" fill="#B2E7FE" fill-opacity="0.12"/>
<path d="M62.7867 25.8256C66.6385 25.8256 69.7666 28.993 69.7666 32.9072V57.6585C69.7666 61.5727 66.6385 64.7402 62.7868 64.7402H16.9853C13.1335 64.7402 10.0055 61.5727 10.0055 57.6585V28.3127C10.0055 24.3985 13.1335 21.2311 16.9853 21.2311H35.9666C37.4822 21.2311 38.8809 22.0626 39.6213 23.4074C40.4427 24.8993 41.997 25.8256 43.6851 25.8256H62.7867Z" stroke="url(#paint1_linear_1138_983)" stroke-width="0.46701"/>
<path d="M62.7867 25.8256C66.6385 25.8256 69.7666 28.993 69.7666 32.9072V57.6585C69.7666 61.5727 66.6385 64.7402 62.7868 64.7402H16.9853C13.1335 64.7402 10.0055 61.5727 10.0055 57.6585V28.3127C10.0055 24.3985 13.1335 21.2311 16.9853 21.2311H35.9666C37.4822 21.2311 38.8809 22.0626 39.6213 23.4074C40.4427 24.8993 41.997 25.8256 43.6851 25.8256H62.7867Z" stroke="url(#paint2_linear_1138_983)" stroke-width="0.46701"/>
</g>
<path d="M65.813 35.6971C65.813 32.5222 63.0584 29.9485 59.6604 29.9485H43.3678C42.0015 29.9485 40.7421 29.2578 40.0761 28.1432C39.41 27.0286 38.1506 26.3379 36.7843 26.3379H20.5945C17.1965 26.3379 14.4419 28.9116 14.4419 32.0865V55.148C14.4419 58.3229 17.1965 60.8966 20.5945 60.8966H59.6604C63.0584 60.8966 65.813 58.3229 65.813 55.148V35.6971Z" fill="white"/>
<rect x="23.7822" y="37.5454" width="28.9546" height="4.6701" rx="2.33505" fill="url(#paint3_linear_1138_983)"/>
<rect x="23.7822" y="48.7539" width="28.9546" height="4.6701" rx="2.33505" fill="url(#paint4_linear_1138_983)"/>
<circle cx="56.9395" cy="39.8805" r="2.33505" fill="url(#paint5_linear_1138_983)"/>
<circle cx="56.9395" cy="51.089" r="2.33505" fill="url(#paint6_linear_1138_983)"/>
<defs>
<filter id="filter0_bi_1138_983" x="0.431777" y="11.6574" width="78.9084" height="62.6565" filterUnits="userSpaceOnUse" color-interpolation-filters="sRGB">
<feFlood flood-opacity="0" result="BackgroundImageFix"/>
<feGaussianBlur in="BackgroundImageFix" stdDeviation="4.6701"/>
<feComposite in2="SourceAlpha" operator="in" result="effect1_backgroundBlur_1138_983"/>
<feBlend mode="normal" in="SourceGraphic" in2="effect1_backgroundBlur_1138_983" result="shape"/>
<feColorMatrix in="SourceAlpha" type="matrix" values="0 0 0 0 0 0 0 0 0 0 0 0 0 0 0 0 0 0 127 0" result="hardAlpha"/>
<feOffset dx="-0.36242" dy="-0.36242"/>
<feComposite in2="hardAlpha" operator="arithmetic" k2="-1" k3="1"/>
<feColorMatrix type="matrix" values="0 0 0 0 1 0 0 0 0 1 0 0 0 0 1 0 0 0 0.08 0"/>
<feBlend mode="normal" in2="shape" result="effect2_innerShadow_1138_983"/>
</filter>
<linearGradient id="paint0_linear_1138_983" x1="43.4787" y1="24.4371" x2="63.0931" y2="14.6299" gradientUnits="userSpaceOnUse">
<stop stop-color="#1CEEA1"/>
<stop offset="1" stop-color="#6BFFC9"/>
</linearGradient>
<linearGradient id="paint1_linear_1138_983" x1="9.77197" y1="20.9976" x2="24.282" y2="40.8117" gradientUnits="userSpaceOnUse">
<stop stop-color="#82DD68" stop-opacity="0.1"/>
<stop offset="1" stop-color="white" stop-opacity="0"/>
</linearGradient>
<linearGradient id="paint2_linear_1138_983" x1="17.7111" y1="68.8357" x2="30.825" y2="16.5282" gradientUnits="userSpaceOnUse">
<stop stop-color="white" stop-opacity="0"/>
<stop offset="1" stop-color="white" stop-opacity="0.31"/>
</linearGradient>
<linearGradient id="paint3_linear_1138_983" x1="51.8852" y1="37.9575" x2="38.0098" y2="57.0747" gradientUnits="userSpaceOnUse">
<stop stop-color="#1CEEA1"/>
<stop offset="1" stop-color="#B9FFEE"/>
</linearGradient>
<linearGradient id="paint4_linear_1138_983" x1="51.8852" y1="49.166" x2="38.0098" y2="68.2832" gradientUnits="userSpaceOnUse">
<stop stop-color="#1CEEA1"/>
<stop offset="1" stop-color="#B9FFEE"/>
</linearGradient>
<linearGradient id="paint5_linear_1138_983" x1="59.1372" y1="37.9575" x2="52.9562" y2="39.331" gradientUnits="userSpaceOnUse">
<stop stop-color="#1CEEA1"/>
<stop offset="1" stop-color="#B9FFEE"/>
</linearGradient>
<linearGradient id="paint6_linear_1138_983" x1="59.1372" y1="49.166" x2="52.9562" y2="50.5395" gradientUnits="userSpaceOnUse">
<stop stop-color="#1CEEA1"/>
<stop offset="1" stop-color="#B9FFEE"/>
</linearGradient>
</defs>
</svg>
